<?xml version="1.0" encoding="UTF-8" standalone="no"?>
<!DOCTYPE svg PUBLIC "-//W3C//DTD SVG 1.1//EN"
 "http://www.w3.org/Graphics/SVG/1.1/DTD/svg11.dtd">
<!-- Generated by graphviz version 2.43.0 (0)
 -->
<!-- Title: G Pages: 1 -->
<svg width="646pt" height="802pt"
 viewBox="0.00 0.00 645.50 802.00" xmlns="http://www.w3.org/2000/svg" xmlns:xlink="http://www.w3.org/1999/xlink">
<g id="graph0" class="graph" transform="scale(1 1) rotate(0) translate(4 798)">
<title>G</title>
<polygon fill="white" stroke="transparent" points="-4,4 -4,-798 641.5,-798 641.5,4 -4,4"/>
<!-- TRUSTABLE&#45;SOFTWARE -->
<g id="node1" class="node">
<title>TRUSTABLE&#45;SOFTWARE</title>
<g id="a_node1"><a xlink:href="https://Erikhu1.github.io/json_EH/master/_images/custom_TRUSTABLE-SOFTWARE_graph.svg" xlink:title="TRUSTABLE&#45;SOFTWARE: This\nrelease of JSON&#45;Library\nalso reffered in the\ndocumentation as nlohmann/json\nlibrary is Trustable.\n" target="_top">
<polygon fill="none" stroke="black" points="436,-794 188,-794 188,-711 436,-711 436,-794"/>
<text text-anchor="middle" x="312" y="-778.8" font-family="Open Sans" font-size="14.00">TRUSTABLE&#45;SOFTWARE: This</text>
<text text-anchor="middle" x="312" y="-763.8" font-family="Open Sans" font-size="14.00">release of JSON&#45;Library</text>
<text text-anchor="middle" x="312" y="-748.8" font-family="Open Sans" font-size="14.00">also reffered in the</text>
<text text-anchor="middle" x="312" y="-733.8" font-family="Open Sans" font-size="14.00">documentation as nlohmann/json</text>
<text text-anchor="middle" x="312" y="-718.8" font-family="Open Sans" font-size="14.00">library is Trustable.</text>
</a>
</g>
</g>
<!-- TT&#45;CHANGES -->
<g id="node6" class="node">
<title>TT&#45;CHANGES</title>
<g id="a_node6"><a xlink:href="https://Erikhu1.github.io/json_EH/master/_images/custom_TT-CHANGES_graph.svg" xlink:title="TT&#45;CHANGES: nlohmann/json\nlibrary is actively maintained,\nwith regular updates\nto dependencies, and\nchanges are verified\nto prevent regressions.\n" target="_top">
<polygon fill="none" stroke="black" points="423,-567 201,-567 201,-469 423,-469 423,-567"/>
<text text-anchor="middle" x="312" y="-551.8" font-family="Open Sans" font-size="14.00">TT&#45;CHANGES: nlohmann/json</text>
<text text-anchor="middle" x="312" y="-536.8" font-family="Open Sans" font-size="14.00">library is actively maintained,</text>
<text text-anchor="middle" x="312" y="-521.8" font-family="Open Sans" font-size="14.00">with regular updates</text>
<text text-anchor="middle" x="312" y="-506.8" font-family="Open Sans" font-size="14.00">to dependencies, and</text>
<text text-anchor="middle" x="312" y="-491.8" font-family="Open Sans" font-size="14.00">changes are verified</text>
<text text-anchor="middle" x="312" y="-476.8" font-family="Open Sans" font-size="14.00">to prevent regressions.</text>
</a>
</g>
</g>
<!-- TRUSTABLE&#45;SOFTWARE&#45;&gt;TT&#45;CHANGES -->
<g id="edge1" class="edge">
<title>TRUSTABLE&#45;SOFTWARE&#45;&gt;TT&#45;CHANGES</title>
<path fill="none" stroke="black" d="M312,-710.74C312,-673.88 312,-619.18 312,-577.63"/>
<polygon fill="black" stroke="black" points="315.5,-577.37 312,-567.37 308.5,-577.37 315.5,-577.37"/>
</g>
<!-- JLS&#45;06 -->
<g id="node2" class="node">
<title>JLS&#45;06</title>
<g id="a_node2"><a xlink:href="https://Erikhu1.github.io/json_EH/master/generated/JLS.html#jls-06" xlink:title="JLS&#45;06: Changes to the\ncode (master branch)\nare applied only after\ncode review and passing\nof all pipelines. " target="_top">
<polygon fill="none" stroke="black" points="188,-83 0,-83 0,0 188,0 188,-83"/>
<text text-anchor="middle" x="94" y="-67.8" font-family="Open Sans" font-size="14.00">JLS&#45;06: Changes to the</text>
<text text-anchor="middle" x="94" y="-52.8" font-family="Open Sans" font-size="14.00">code (master branch)</text>
<text text-anchor="middle" x="94" y="-37.8" font-family="Open Sans" font-size="14.00">are applied only after</text>
<text text-anchor="middle" x="94" y="-22.8" font-family="Open Sans" font-size="14.00">code review and passing</text>
<text text-anchor="middle" x="94" y="-7.8" font-family="Open Sans" font-size="14.00">of all pipelines. </text>
</a>
</g>
</g>
<!-- JLS&#45;07 -->
<g id="node3" class="node">
<title>JLS&#45;07</title>
<g id="a_node3"><a xlink:href="https://Erikhu1.github.io/json_EH/master/generated/JLS.html#jls-07" xlink:title="JLS&#45;07: Master branch\nis protected, i.e. no\ndirect commits are possible.\n" target="_top">
<polygon fill="none" stroke="black" points="418,-68 206,-68 206,-15 418,-15 418,-68"/>
<text text-anchor="middle" x="312" y="-52.8" font-family="Open Sans" font-size="14.00">JLS&#45;07: Master branch</text>
<text text-anchor="middle" x="312" y="-37.8" font-family="Open Sans" font-size="14.00">is protected, i.e. no</text>
<text text-anchor="middle" x="312" y="-22.8" font-family="Open Sans" font-size="14.00">direct commits are possible.</text>
</a>
</g>
</g>
<!-- JLS&#45;12 -->
<g id="node4" class="node">
<title>JLS&#45;12</title>
<g id="a_node4"><a xlink:href="https://Erikhu1.github.io/json_EH/master/generated/JLS.html#jls-12" xlink:title="JLS&#45;12: The S&#45;Core change\nprocess management is\nfollowed. " target="_top">
<polygon fill="none" stroke="black" points="637.5,-68 436.5,-68 436.5,-15 637.5,-15 637.5,-68"/>
<text text-anchor="middle" x="537" y="-52.8" font-family="Open Sans" font-size="14.00">JLS&#45;12: The S&#45;Core change</text>
<text text-anchor="middle" x="537" y="-37.8" font-family="Open Sans" font-size="14.00">process management is</text>
<text text-anchor="middle" x="537" y="-22.8" font-family="Open Sans" font-size="14.00">followed. </text>
</a>
</g>
</g>
<!-- TA&#45;UPDATES -->
<g id="node5" class="node">
<title>TA&#45;UPDATES</title>
<g id="a_node5"><a xlink:href="https://Erikhu1.github.io/json_EH/master/_images/custom_TA-UPDATES_graph.svg" xlink:title="TA&#45;UPDATES: nlohmann/json\nlibrary components, configurations\nand tools are updated\nunder specified change\nand configuration management\ncontrols. " target="_top">
<polygon fill="none" stroke="black" points="442,-325 182,-325 182,-227 442,-227 442,-325"/>
<text text-anchor="middle" x="312" y="-309.8" font-family="Open Sans" font-size="14.00">TA&#45;UPDATES: nlohmann/json</text>
<text text-anchor="middle" x="312" y="-294.8" font-family="Open Sans" font-size="14.00">library components, configurations</text>
<text text-anchor="middle" x="312" y="-279.8" font-family="Open Sans" font-size="14.00">and tools are updated</text>
<text text-anchor="middle" x="312" y="-264.8" font-family="Open Sans" font-size="14.00">under specified change</text>
<text text-anchor="middle" x="312" y="-249.8" font-family="Open Sans" font-size="14.00">and configuration management</text>
<text text-anchor="middle" x="312" y="-234.8" font-family="Open Sans" font-size="14.00">controls. </text>
</a>
</g>
</g>
<!-- TA&#45;UPDATES&#45;&gt;JLS&#45;06 -->
<g id="edge2" class="edge">
<title>TA&#45;UPDATES&#45;&gt;JLS&#45;06</title>
<path fill="none" stroke="black" d="M266.83,-226.83C229.53,-187.05 176.84,-130.85 139.46,-90.99"/>
<polygon fill="black" stroke="black" points="141.59,-88.14 132.2,-83.24 136.49,-92.93 141.59,-88.14"/>
</g>
<!-- TA&#45;UPDATES&#45;&gt;JLS&#45;07 -->
<g id="edge3" class="edge">
<title>TA&#45;UPDATES&#45;&gt;JLS&#45;07</title>
<path fill="none" stroke="black" d="M312,-226.83C312,-182.63 312,-118.15 312,-78.34"/>
<polygon fill="black" stroke="black" points="315.5,-78.29 312,-68.29 308.5,-78.29 315.5,-78.29"/>
</g>
<!-- TA&#45;UPDATES&#45;&gt;JLS&#45;12 -->
<g id="edge4" class="edge">
<title>TA&#45;UPDATES&#45;&gt;JLS&#45;12</title>
<path fill="none" stroke="black" d="M358.62,-226.83C402.3,-181.69 466.45,-115.4 504.74,-75.84"/>
<polygon fill="black" stroke="black" points="507.6,-77.91 512.04,-68.29 502.57,-73.05 507.6,-77.91"/>
</g>
<!-- TT&#45;CHANGES&#45;&gt;TA&#45;UPDATES -->
<g id="edge5" class="edge">
<title>TT&#45;CHANGES&#45;&gt;TA&#45;UPDATES</title>
<path fill="none" stroke="black" d="M312,-468.72C312,-430.23 312,-376.2 312,-335.3"/>
<polygon fill="black" stroke="black" points="315.5,-335.2 312,-325.2 308.5,-335.2 315.5,-335.2"/>
</g>
</g>
</svg>
